#N canvas -8 -8 1366 695 12;
#X obj 20 113 metro 1000;
#X obj 20 13 tgl 15 0 empty empty empty 17 7 0 10 -262144 -1 -1 0 1
;
#X obj 129 168 delay 500;
#X text 48 11 <- Inicia e para o metrônomo;
#X msg 20 188 0;
#X msg 129 197 1;
#X obj 20 308 send toNetwork;
#X obj 61 62 hsl 128 15 2000 500 0 0 empty empty empty -2 -8 0 10 -262144
-1 -1 5100 1;
#X obj 129 139 / 2;
#X text 200 59 <- Controla o tempo de envio;
#X text 177 140 <- O delay é sempre metade do tempo;
#X msg 20 224 list /voice 0 /flash \$1 /voice 1 /flash \$1 /voice 2
/flash \$1 /voice 3 /flash \$1;
#X obj 58 35 t b;
#X obj 627 128 metro 1000;
#X obj 627 16 tgl 15 0 empty empty empty 17 7 0 10 -262144 -1 -1 0
1;
#X text 649 14 <- Inicia e para o metrônomo;
#X obj 614 461 send toNetwork;
#X obj 669 75 hsl 128 15 2000 500 0 0 empty empty empty -2 -8 0 10
-262144 -1 -1 5200 1;
#X text 807 74 <- Controla o tempo de envio;
#X obj 665 50 t b;
#X floatatom 684 184 0 0 0 0 - - -;
#X obj 684 159 + 1;
#X obj 627 160 float;
#X obj 627 209 hradio 15 1 0 4 empty empty empty 0 -8 0 10 -262144
-1 -1 1;
#X obj 627 229 select 0 1 2 3;
#X msg 614 317 list /voice 0 /flash \$1 /voice 1 /flash \$2 /voice
2 /flash \$3 /voice 3 /flash \$4;
#X msg 627 266 1 0 0 0;
#X obj 627 184 % 4;
#X msg 697 265 0 1 0 0;
#X msg 774 268 0 0 1 0;
#X msg 842 267 0 0 0 1;
#X floatatom 665 97 5 0 0 0 - - -;
#X obj 19 478 send toNetwork;
#X text 14 351 Desliga todos os flashes;
#X msg 19 434 list /voice 0 /flash 0 /voice 1 /flash 0 /voice 2 /flash
0 /voice 3 /flash 0;
#X obj 72 139 t b;
#X floatatom 58 82 5 0 0 0 - - -;
#X msg 105 265 list /voice 0 /vibrate \$1 /voice 1 /vibrate \$1 /voice
2 /vibrate \$1 /voice 3 /vibrate \$1;
#X msg 738 365 list /voice 0 /vibrate \$1 /voice 1 /vibrate \$2 /voice
2 /vibrate \$3 /voice 3 /vibrate \$4;
#X obj 18 370 bng 15 250 50 0 empty empty empty 17 7 0 10 -262144 -1
-1;
#X msg 18 391 list /voice 0 /vibrate 0 /voice 1 /vibrate 0 /voice 2
/vibrate 0 /voice 3 /vibrate 0;
#X obj 1236 169 metro 1000;
#X obj 1236 57 tgl 15 0 empty empty empty 17 7 0 10 -262144 -1 -1 0
1;
#X text 1258 55 <- Inicia e para o metrônomo;
#X obj 1236 361 send toNetwork;
#X obj 1278 116 hsl 128 15 2000 500 0 0 empty empty empty -2 -8 0 10
-262144 -1 -1 7400 1;
#X text 1416 115 <- Controla o tempo de envio;
#X obj 1274 91 t b;
#X floatatom 1293 225 0 0 0 0 - - -;
#X obj 1293 200 + 1;
#X obj 1236 201 float;
#X obj 1236 250 hradio 15 1 0 4 empty empty empty 0 -8 0 10 -262144
-1 -1 2;
#X obj 1236 225 % 4;
#X floatatom 1274 138 5 0 0 0 - - -;
#X msg 1236 315 list /voice 0 /canvas paintrect 0 0 300 500 \$1 \$1
\$1 1;
#X obj 1236 286 / 3;
#X msg 1118 596 list /noise \$1;
#X obj 1118 632 send toNetwork;
#X obj 1118 482 metro 1000;
#X obj 1118 447 tgl 15 0 empty empty empty 17 7 0 10 -262144 -1 -1
0 1;
#X text 1312 415 <- Inicia e para o metrônomo;
#X floatatom 1175 538 0 0 0 0 - - -;
#X obj 1175 513 + 1;
#X obj 1118 514 float;
#X obj 1118 563 hradio 15 1 0 2 empty empty empty 0 -8 0 10 -262144
-1 -1 0;
#X obj 1118 538 % 2;
#X text 1229 490 inicia o noise;
#X text 1374 165 muda cor da tela;
#X text 765 124 vibra e flash;
#X text 314 103 vibra e flash;
#X connect 0 0 4 0;
#X connect 0 0 35 0;
#X connect 1 0 0 0;
#X connect 1 0 12 0;
#X connect 2 0 5 0;
#X connect 4 0 11 0;
#X connect 4 0 37 0;
#X connect 5 0 11 0;
#X connect 5 0 37 0;
#X connect 7 0 0 1;
#X connect 7 0 8 0;
#X connect 7 0 36 0;
#X connect 8 0 2 0;
#X connect 11 0 6 0;
#X connect 12 0 7 0;
#X connect 13 0 22 0;
#X connect 14 0 13 0;
#X connect 14 0 19 0;
#X connect 17 0 13 1;
#X connect 17 0 31 0;
#X connect 19 0 17 0;
#X connect 21 0 20 0;
#X connect 21 0 22 1;
#X connect 22 0 21 0;
#X connect 22 0 27 0;
#X connect 23 0 24 0;
#X connect 24 0 26 0;
#X connect 24 1 28 0;
#X connect 24 2 29 0;
#X connect 24 3 30 0;
#X connect 25 0 16 0;
#X connect 26 0 25 0;
#X connect 26 0 38 0;
#X connect 27 0 23 0;
#X connect 28 0 25 0;
#X connect 28 0 38 0;
#X connect 29 0 25 0;
#X connect 29 0 38 0;
#X connect 30 0 25 0;
#X connect 30 0 38 0;
#X connect 34 0 32 0;
#X connect 35 0 2 0;
#X connect 37 0 6 0;
#X connect 38 0 16 0;
#X connect 39 0 40 0;
#X connect 39 0 34 0;
#X connect 41 0 50 0;
#X connect 42 0 41 0;
#X connect 42 0 47 0;
#X connect 45 0 41 1;
#X connect 45 0 53 0;
#X connect 47 0 45 0;
#X connect 49 0 48 0;
#X connect 49 0 50 1;
#X connect 50 0 49 0;
#X connect 50 0 52 0;
#X connect 51 0 55 0;
#X connect 52 0 51 0;
#X connect 54 0 44 0;
#X connect 55 0 54 0;
#X connect 56 0 57 0;
#X connect 58 0 63 0;
#X connect 59 0 58 0;
#X connect 62 0 61 0;
#X connect 62 0 63 1;
#X connect 63 0 62 0;
#X connect 63 0 65 0;
#X connect 64 0 56 0;
#X connect 65 0 64 0;
