#N canvas -8 -8 1366 695 12;
#X obj 182 176 bng 15 250 50 0 empty empty empty 17 7 0 10 -262144
-1 -1;
#X obj 109 217 delay 1 220500 samp;
#X obj 163 391 *~ 0.5;
#X obj 172 429 dac~;
#X msg 100 256 0;
#X obj 188 286 phasor~;
#X obj 191 322 *~;
#X obj 276 196 t f f;
#X obj 276 240 expr 1000 / $f1;
#X msg 275 141 5000;
#X obj 163 355 tabread4~ sample3;
#X obj 103 136 r tocasample3;
#X obj 307 285 * 44.1;
#X text 95 98 executa um sample por tabread;
#X connect 0 0 1 0;
#X connect 0 0 7 0;
#X connect 0 0 9 0;
#X connect 1 0 4 0;
#X connect 2 0 3 0;
#X connect 4 0 5 0;
#X connect 5 0 6 0;
#X connect 6 0 10 0;
#X connect 7 0 8 0;
#X connect 7 1 12 0;
#X connect 8 0 5 0;
#X connect 9 0 7 0;
#X connect 10 0 2 0;
#X connect 11 0 0 0;
#X connect 12 0 6 1;
