#N canvas 356 152 666 681 12;
#X obj 63 256 textfile;
#X obj 63 -1 bng 15 250 50 0 empty empty empty 0 -6 0 8 -262144 -1
-1;
#X msg 188 64 read numbers.txt cr;
#X msg 167 118 rewind;
#X text 88 -4 <---click here first;
#X text 199 37 you'll need a file in the same path named numbers.txt
;
#X floatatom 187 396 5 0 0 0 - - -, f 5;
#X floatatom 134 377 5 0 0 0 - - -, f 5;
#X floatatom 98 401 5 0 0 0 - - -, f 5;
#X floatatom 63 428 5 0 0 0 - - -, f 5;
#X obj 273 182 delay;
#X obj 105 25 t b b b;
#X obj 328 228 bng 15 250 50 0 empty empty empty 17 7 0 10 -262144
-1 -1;
#X obj 63 321 unpack f f f f f;
#X floatatom 209 364 5 0 0 0 - - -, f 5;
#X connect 0 0 13 0;
#X connect 1 0 11 0;
#X connect 2 0 0 0;
#X connect 3 0 0 0;
#X connect 10 0 0 0;
#X connect 10 0 12 0;
#X connect 11 0 0 0;
#X connect 11 1 3 0;
#X connect 11 2 2 0;
#X connect 13 0 9 0;
#X connect 13 0 10 0;
#X connect 13 1 8 0;
#X connect 13 2 7 0;
#X connect 13 3 6 0;
#X connect 13 4 14 0;
