#N canvas 247 147 845 604 12;
#X obj 113 41 receive fromNetwork;
#X obj 214 212 hradio 15 1 0 4 empty empty empty 0 -8 0 10 -262144
-1 -1 0;
#X obj 114 247 select;
#X obj 114 106 list trim;
#X obj 114 187 list split 1;
#X obj 119 336 spigot;
#X obj 114 148 route /voice;
#X msg 144 299 1;
#X msg 199 299 0;
#X obj 119 369 list trim;
#X obj 371 33 receive fromGUI;
#X msg 327 465 list /flash \$1;
#X obj 340 510 send toSystem;
#X obj 471 510 send toSystem;
#X msg 458 465 list /vibrate \$1;
#X obj 375 77 list trim;
#X obj 375 119 route /voice;
#X obj 119 499 send toGUI;
#X obj 398 199 receive fromNetwork;
#X obj 398 263 send toGUI;
#X obj 119 404 route /canvas /flash /vibrate;
#X obj 119 452 list prepend /canvas;
#X connect 0 0 3 0;
#X connect 1 0 2 1;
#X connect 2 0 7 0;
#X connect 2 1 8 0;
#X connect 3 0 6 0;
#X connect 4 0 2 0;
#X connect 4 1 5 0;
#X connect 5 0 9 0;
#X connect 6 0 4 0;
#X connect 7 0 5 1;
#X connect 8 0 5 1;
#X connect 9 0 20 0;
#X connect 10 0 15 0;
#X connect 11 0 12 0;
#X connect 14 0 13 0;
#X connect 15 0 16 0;
#X connect 16 0 1 0;
#X connect 18 0 19 0;
#X connect 20 0 21 0;
#X connect 20 1 11 0;
#X connect 20 2 14 0;
#X connect 21 0 17 0;
