#N canvas 713 148 644 604 12;
#X obj 65 33 receive fromGUI;
#X obj 65 62 list trim;
#X obj 63 182 loadbang;
#X obj 63 265 send toGUI;
#X msg 63 218 list /canvas paintrect 0 0 300 500 0 0 0 1;
#N canvas 391 184 582 552 degrade3 0;
#X obj 176 127 select 1;
#X msg 65 63 1 2000;
#X obj 65 113 line;
#X msg 128 69 0 0;
#X msg 65 224 list /canvas paintrect 0 0 300 500 0 \$1 \$2 1;
#X obj 65 191 pack f f;
#X obj 65 261 send toGUI;
#X obj 65 7 inlet;
#X obj 295 123 line;
#X msg 358 79 0 0;
#X obj 334 30 t b b;
#X msg 308 69 1 0;
#X msg 245 63 0 2000;
#X obj 65 33 t b b;
#X obj 406 137 select 0;
#X connect 0 0 3 0;
#X connect 1 0 2 0;
#X connect 2 0 0 0;
#X connect 2 0 5 0;
#X connect 3 0 2 0;
#X connect 4 0 6 0;
#X connect 5 0 4 0;
#X connect 7 0 13 0;
#X connect 8 0 5 1;
#X connect 8 0 14 0;
#X connect 9 0 8 0;
#X connect 10 0 12 0;
#X connect 10 1 11 0;
#X connect 11 0 8 0;
#X connect 12 0 8 0;
#X connect 13 0 1 0;
#X connect 13 1 10 0;
#X connect 14 0 9 0;
#X restore 240 124 pd degrade3;
#N canvas 56 96 450 300 degrade2 0;
#X obj 35 11 inlet;
#X obj 35 35 t b;
#X obj 146 129 select 1;
#X msg 35 65 1 2000;
#X obj 35 115 line;
#X msg 98 71 0 0;
#X msg 35 226 list /canvas paintrect 0 0 300 500 0 \$1 \$2 1;
#X obj 35 193 pack f f;
#X obj 35 150 t f f;
#X obj 35 263 send toGUI;
#X connect 0 0 1 0;
#X connect 1 0 3 0;
#X connect 2 0 5 0;
#X connect 3 0 4 0;
#X connect 4 0 2 0;
#X connect 4 0 8 0;
#X connect 5 0 4 0;
#X connect 6 0 9 0;
#X connect 7 0 6 0;
#X connect 8 0 7 0;
#X connect 8 1 7 1;
#X restore 152 124 pd degrade2;
#N canvas 56 96 450 300 degrade1 0;
#X obj 24 14 inlet;
#X obj 24 213 send toGUI;
#X obj 24 45 t b;
#X msg 24 176 list /canvas paintrect 0 0 300 500 \$1 \$1 \$1 1;
#X obj 136 139 select 1;
#X msg 24 75 1 2000;
#X obj 24 125 line;
#X msg 87 81 0 0;
#X connect 0 0 2 0;
#X connect 2 0 5 0;
#X connect 3 0 1 0;
#X connect 4 0 7 0;
#X connect 5 0 6 0;
#X connect 6 0 4 0;
#X connect 6 0 3 0;
#X connect 7 0 6 0;
#X restore 65 124 pd degrade1;
#X obj 65 89 route /myButton1 /myButton2 /myButton3 /myButton4;
#N canvas 319 184 582 552 degrade4 0;
#X obj 176 127 select 1;
#X msg 65 63 1 2000;
#X obj 65 113 line;
#X msg 128 69 0 0;
#X obj 65 191 pack f f;
#X obj 65 261 send toGUI;
#X obj 65 7 inlet;
#X obj 295 123 line;
#X msg 358 79 0 0;
#X obj 334 30 t b b;
#X msg 308 69 1 0;
#X msg 245 63 0 2000;
#X obj 65 33 t b b;
#X msg 65 224 list /canvas paintrect 0 0 300 500 \$1 0 \$2 1;
#X obj 406 137 select 0;
#X connect 0 0 3 0;
#X connect 1 0 2 0;
#X connect 2 0 0 0;
#X connect 2 0 4 0;
#X connect 3 0 2 0;
#X connect 4 0 13 0;
#X connect 6 0 12 0;
#X connect 7 0 4 1;
#X connect 7 0 14 0;
#X connect 8 0 7 0;
#X connect 9 0 11 0;
#X connect 9 1 10 0;
#X connect 10 0 7 0;
#X connect 11 0 7 0;
#X connect 12 0 1 0;
#X connect 12 1 9 0;
#X connect 13 0 5 0;
#X connect 14 0 8 0;
#X restore 338 126 pd degrade4;
#X connect 0 0 1 0;
#X connect 1 0 8 0;
#X connect 2 0 4 0;
#X connect 4 0 3 0;
#X connect 8 0 7 0;
#X connect 8 1 6 0;
#X connect 8 2 5 0;
#X connect 8 3 9 0;
